<mxfile host="app.diagrams.net" agent="Mozilla/5.0 (Windows NT 10.0; Win64; x64; rv:137.0) Gecko/20100101 Firefox/137.0" version="26.2.13">
  <diagram name="Page-1" id="T-y03ghc2Tvl-6XSiW8f">
    <mxGraphModel dx="1044" dy="543" grid="1" gridSize="10" guides="1" tooltips="1" connect="1" arrows="1" fold="1" page="1" pageScale="1" pageWidth="850" pageHeight="1100" math="0" shadow="0">
      <root>
        <mxCell id="0" />
        <mxCell id="1" parent="0" />
        <mxCell id="NY2Yz3gPsBfXqk57YhbN-1" value="" style="image;html=1;image=img/lib/clip_art/networking/Router_Icon_128x128.png;labelBackgroundColor=none;" vertex="1" parent="1">
          <mxGeometry x="380" y="150" width="70" height="60" as="geometry" />
        </mxCell>
        <mxCell id="NY2Yz3gPsBfXqk57YhbN-2" value="" style="sketch=0;points=[[0.015,0.015,0],[0.985,0.015,0],[0.985,0.985,0],[0.015,0.985,0],[0.25,0,0],[0.5,0,0],[0.75,0,0],[1,0.25,0],[1,0.5,0],[1,0.75,0],[0.75,1,0],[0.5,1,0],[0.25,1,0],[0,0.75,0],[0,0.5,0],[0,0.25,0]];verticalLabelPosition=bottom;html=1;verticalAlign=top;aspect=fixed;align=center;pointerEvents=1;shape=mxgraph.cisco19.rect;prIcon=l2_switch;labelBackgroundColor=none;" vertex="1" parent="1">
          <mxGeometry x="390" y="290" width="50" height="50" as="geometry" />
        </mxCell>
        <mxCell id="NY2Yz3gPsBfXqk57YhbN-4" value="" style="verticalLabelPosition=bottom;sketch=0;aspect=fixed;html=1;verticalAlign=top;strokeColor=none;align=center;outlineConnect=0;shape=mxgraph.citrix.desktop;labelBackgroundColor=none;" vertex="1" parent="1">
          <mxGeometry x="209.04" y="420" width="49.92" height="54.97" as="geometry" />
        </mxCell>
        <mxCell id="NY2Yz3gPsBfXqk57YhbN-5" value="" style="image;aspect=fixed;perimeter=ellipsePerimeter;html=1;align=center;shadow=0;dashed=0;spacingTop=3;image=img/lib/active_directory/laptop_client.svg;labelBackgroundColor=none;" vertex="1" parent="1">
          <mxGeometry x="385" y="420" width="58.47" height="64.97" as="geometry" />
        </mxCell>
        <mxCell id="NY2Yz3gPsBfXqk57YhbN-6" value="" style="image;aspect=fixed;perimeter=ellipsePerimeter;html=1;align=center;shadow=0;dashed=0;spacingTop=3;image=img/lib/active_directory/printer.svg;labelBackgroundColor=none;" vertex="1" parent="1">
          <mxGeometry x="545.77" y="415.98" width="74.23" height="48.99" as="geometry" />
        </mxCell>
        <mxCell id="NY2Yz3gPsBfXqk57YhbN-12" value="&lt;div&gt;Router&lt;/div&gt;&lt;div&gt;&lt;br&gt;&lt;/div&gt;" style="text;html=1;align=center;verticalAlign=middle;resizable=0;points=[];autosize=1;strokeColor=none;fillColor=none;labelBackgroundColor=none;" vertex="1" parent="1">
          <mxGeometry x="383.47" y="120" width="60" height="40" as="geometry" />
        </mxCell>
        <mxCell id="NY2Yz3gPsBfXqk57YhbN-13" value="&lt;div&gt;Desktop&lt;/div&gt;&lt;div&gt;&lt;br&gt;&lt;/div&gt;" style="text;html=1;align=center;verticalAlign=middle;resizable=0;points=[];autosize=1;strokeColor=none;fillColor=none;labelBackgroundColor=none;" vertex="1" parent="1">
          <mxGeometry x="199" y="484.97" width="70" height="40" as="geometry" />
        </mxCell>
        <mxCell id="NY2Yz3gPsBfXqk57YhbN-14" value="&lt;div&gt;Laptop&lt;/div&gt;&lt;div&gt;&lt;br&gt;&lt;/div&gt;" style="text;html=1;align=center;verticalAlign=middle;resizable=0;points=[];autosize=1;strokeColor=none;fillColor=none;labelBackgroundColor=none;" vertex="1" parent="1">
          <mxGeometry x="385" y="484.97" width="60" height="40" as="geometry" />
        </mxCell>
        <mxCell id="NY2Yz3gPsBfXqk57YhbN-16" value="&lt;div&gt;Printer&lt;/div&gt;&lt;div&gt;&lt;br&gt;&lt;/div&gt;" style="text;html=1;align=center;verticalAlign=middle;resizable=0;points=[];autosize=1;strokeColor=none;fillColor=none;labelBackgroundColor=none;" vertex="1" parent="1">
          <mxGeometry x="560" y="484.97" width="60" height="40" as="geometry" />
        </mxCell>
        <mxCell id="NY2Yz3gPsBfXqk57YhbN-43" value="" style="endArrow=none;html=1;rounded=0;entryX=0.5;entryY=1;entryDx=0;entryDy=0;exitX=0.5;exitY=0;exitDx=0;exitDy=0;exitPerimeter=0;" edge="1" parent="1" source="NY2Yz3gPsBfXqk57YhbN-2" target="NY2Yz3gPsBfXqk57YhbN-1">
          <mxGeometry width="50" height="50" relative="1" as="geometry">
            <mxPoint x="390" y="260" as="sourcePoint" />
            <mxPoint x="440" y="210" as="targetPoint" />
          </mxGeometry>
        </mxCell>
        <mxCell id="NY2Yz3gPsBfXqk57YhbN-44" value="" style="endArrow=none;html=1;rounded=0;" edge="1" parent="1">
          <mxGeometry width="50" height="50" relative="1" as="geometry">
            <mxPoint x="440" y="319" as="sourcePoint" />
            <mxPoint x="580" y="319" as="targetPoint" />
          </mxGeometry>
        </mxCell>
        <mxCell id="NY2Yz3gPsBfXqk57YhbN-45" value="" style="endArrow=none;html=1;rounded=0;entryX=0.572;entryY=1.152;entryDx=0;entryDy=0;entryPerimeter=0;" edge="1" parent="1" target="NY2Yz3gPsBfXqk57YhbN-2">
          <mxGeometry width="50" height="50" relative="1" as="geometry">
            <mxPoint x="419" y="410" as="sourcePoint" />
            <mxPoint x="470" y="380" as="targetPoint" />
          </mxGeometry>
        </mxCell>
        <mxCell id="NY2Yz3gPsBfXqk57YhbN-47" value="" style="endArrow=none;html=1;rounded=0;" edge="1" parent="1">
          <mxGeometry width="50" height="50" relative="1" as="geometry">
            <mxPoint x="580" y="400" as="sourcePoint" />
            <mxPoint x="580" y="320" as="targetPoint" />
          </mxGeometry>
        </mxCell>
        <mxCell id="NY2Yz3gPsBfXqk57YhbN-54" value="" style="endArrow=none;html=1;rounded=0;" edge="1" parent="1">
          <mxGeometry width="50" height="50" relative="1" as="geometry">
            <mxPoint x="230" y="415.98" as="sourcePoint" />
            <mxPoint x="230" y="320" as="targetPoint" />
          </mxGeometry>
        </mxCell>
        <mxCell id="NY2Yz3gPsBfXqk57YhbN-55" value="" style="endArrow=none;html=1;rounded=0;" edge="1" parent="1">
          <mxGeometry width="50" height="50" relative="1" as="geometry">
            <mxPoint x="230" y="320" as="sourcePoint" />
            <mxPoint x="380" y="320" as="targetPoint" />
          </mxGeometry>
        </mxCell>
      </root>
    </mxGraphModel>
  </diagram>
</mxfile>
